<?xml version="1.0" standalone="no"?>
<!DOCTYPE svg PUBLIC "-//W3C//DTD SVG 20010904//EN"
 "http://www.w3.org/TR/2001/REC-SVG-20010904/DTD/svg10.dtd">
<svg version="1.0" xmlns="http://www.w3.org/2000/svg"
 width="1189.000000pt" height="270.000000pt" viewBox="0 0 1189.000000 270.000000"
 preserveAspectRatio="xMidYMid meet">

<g transform="translate(0.000000,270.000000) scale(0.100000,-0.100000)"
fill="#000000" stroke="none">
<path d="M6880 2239 c-251 -18 -470 -149 -571 -341 -11 -21 -22 -38 -24 -38
-3 0 -30 20 -61 45 -166 135 -427 190 -642 135 -98 -24 -138 -42 -214 -92 -31
-21 -59 -38 -62 -38 -4 0 -6 20 -6 45 0 52 -18 102 -47 128 -55 49 -368 66
-523 29 -125 -30 -188 -56 -269 -112 l-72 -50 -37 24 c-80 52 -233 89 -630
152 -254 40 -272 31 -301 -154 l-16 -104 -230 7 c-126 4 -233 10 -238 14 -4 4
-1 27 8 51 26 74 30 143 10 178 -10 17 -29 35 -42 41 -52 24 -442 5 -485 -23
-34 -22 -43 -46 -73 -206 -42 -223 -47 -243 -55 -234 -4 5 -33 94 -64 199 -31
104 -64 197 -73 207 -29 33 -77 37 -267 27 -220 -11 -237 -14 -270 -40 -35
-28 -46 -73 -30 -128 l13 -43 -27 6 c-78 19 -209 18 -305 -3 -334 -71 -538
-325 -555 -693 -13 -294 126 -539 373 -657 186 -90 379 -101 584 -34 87 28
227 127 289 205 l54 68 21 -26 c38 -49 66 -54 258 -44 96 5 193 10 215 10 l42
0 -2 -88 c-1 -99 9 -129 56 -156 25 -16 80 -20 381 -33 438 -18 478 -16 513
19 24 23 28 38 36 129 5 57 11 105 12 106 2 2 27 -1 56 -7 29 -5 75 -10 102
-10 41 0 54 5 78 28 16 16 32 45 35 65 9 47 21 40 28 -18 8 -56 29 -89 66
-105 52 -21 443 -78 477 -68 54 14 78 51 78 114 -1 30 2 53 5 51 102 -55 196
-78 346 -84 149 -6 283 12 402 53 l74 26 47 -31 c192 -122 437 -154 646 -83
150 51 277 154 361 292 l37 60 40 -32 c75 -62 103 -80 167 -110 227 -105 507
-87 716 47 30 19 57 35 59 35 2 0 7 -33 11 -72 21 -220 33 -279 60 -308 15
-15 39 -30 53 -33 24 -5 331 25 409 39 17 3 42 17 55 31 20 21 23 35 23 99 0
41 2 74 5 74 3 0 27 -34 54 -76 71 -110 71 -110 315 -85 283 31 279 30 318 64
l34 30 212 -22 c272 -28 277 -29 277 -47 0 -35 33 -83 67 -99 33 -16 50 -16
267 -1 436 31 544 57 701 170 27 20 52 32 56 28 3 -4 11 -27 18 -52 26 -90
115 -174 214 -200 62 -17 170 -8 228 17 58 26 125 85 148 132 61 120 46 275
-35 370 -34 39 -35 43 -24 77 10 29 10 142 1 508 -6 259 -14 490 -17 513 -7
51 -43 90 -89 99 -50 9 -444 -25 -475 -41 -15 -8 -35 -30 -44 -50 -15 -32 -16
-46 -5 -135 7 -55 10 -102 8 -104 -2 -3 -31 8 -64 23 -137 65 -288 79 -620 58
l-130 -8 -16 39 c-27 66 -40 70 -330 102 -503 55 -514 56 -554 37 -24 -11 -41
-29 -51 -52 -8 -19 -18 -35 -24 -35 -36 0 -402 -43 -431 -50 -47 -13 -73 -44
-95 -112 -10 -32 -21 -58 -25 -58 -4 0 -10 20 -13 44 -8 53 -43 92 -89 99 -18
3 -85 0 -149 -7 l-118 -12 -45 58 c-128 165 -347 254 -585 237z m213 -125
c127 -33 263 -129 321 -229 31 -52 31 -52 9 -58 -21 -5 21 -1 197 17 69 7 128
11 132 7 3 -3 18 -121 33 -261 14 -140 27 -259 29 -264 1 -5 39 92 84 215 120
329 121 332 129 340 9 9 405 51 412 44 4 -5 -30 -81 -179 -404 -44 -96 -80
-179 -80 -184 0 -5 24 -41 54 -81 29 -39 87 -117 129 -174 l76 -103 5 33 c3
18 21 184 41 368 20 184 43 403 52 485 8 83 19 154 23 158 8 9 710 -62 723
-73 4 -4 5 -32 1 -63 -6 -53 -9 -57 -32 -57 -14 0 -23 -2 -20 -5 2 -3 119 5
259 16 361 29 499 20 624 -43 164 -83 252 -246 262 -483 7 -150 -5 -217 -58
-323 -55 -112 -129 -186 -241 -241 -107 -53 -177 -67 -433 -86 -116 -8 -237
-18 -270 -21 l-61 -6 -32 429 c-18 235 -35 469 -39 519 l-6 90 -131 13 c-72 6
-152 14 -177 17 l-47 5 -7 -77 c-5 -51 -3 -79 4 -83 6 -4 84 -15 173 -24 89
-10 163 -19 165 -20 3 -4 -27 -270 -32 -275 -2 -2 -70 3 -152 12 -220 24 -199
30 -207 -60 -4 -42 -5 -78 -2 -81 2 -2 89 -14 193 -25 103 -11 192 -23 196
-27 6 -6 -18 -271 -26 -277 -1 -1 -54 5 -117 12 -216 25 -513 55 -516 51 -2
-2 8 -20 21 -40 l25 -37 -22 -5 c-13 -2 -95 -11 -183 -20 -88 -8 -174 -17
-192 -20 -31 -6 -32 -5 -196 242 -90 136 -169 257 -176 268 -10 17 -11 15 -6
-15 11 -77 55 -523 52 -526 -7 -7 -346 -38 -351 -33 -3 3 -17 115 -31 250 -14
134 -27 255 -29 269 -3 14 -5 36 -6 50 -1 21 -5 17 -27 -25 -63 -121 -227
-238 -378 -270 -281 -59 -549 60 -663 294 l-40 82 -6 -54 c-17 -133 -85 -265
-186 -360 -80 -75 -144 -111 -246 -137 -248 -64 -523 35 -666 240 -18 25 -18
24 -12 -47 l6 -72 -37 -15 c-120 -50 -370 -71 -508 -41 -258 54 -422 266 -429
553 -2 75 -2 75 -5 16 l-4 -62 -47 -12 c-96 -25 -88 -21 -66 -33 34 -18 85
-71 105 -110 33 -63 120 -430 105 -444 -5 -5 -329 40 -376 53 -12 3 -22 40
-40 141 -13 76 -32 161 -42 190 -22 61 -67 113 -97 113 -12 0 -21 -2 -21 -3 0
-17 -62 -393 -65 -396 -5 -4 -346 46 -351 52 -2 2 2 33 8 70 6 37 9 70 6 73
-3 3 -81 8 -172 11 l-166 6 0 -80 0 -80 46 -7 c26 -3 95 -6 154 -6 59 0 129
-3 155 -7 l48 -6 -7 -136 c-4 -75 -9 -137 -11 -139 -7 -8 -748 27 -754 35 -4
4 -2 139 5 298 7 160 12 340 12 400 l0 110 -21 -75 c-11 -41 -46 -165 -77
-275 l-55 -200 -110 -6 c-202 -12 -285 -13 -293 -4 -5 6 -31 70 -58 142 -47
130 -64 158 -64 109 0 -38 -36 -146 -70 -208 -67 -124 -184 -219 -325 -264
-100 -32 -254 -36 -355 -9 -211 55 -362 209 -416 425 -21 84 -14 268 14 355
74 233 241 378 477 415 131 21 291 -6 399 -67 32 -19 61 -32 63 -30 2 2 -19
64 -47 137 -27 72 -50 136 -50 140 0 7 85 13 329 23 l53 2 104 -345 c58 -190
112 -376 122 -415 l18 -70 33 175 c63 328 130 673 133 675 8 8 368 16 368 9 0
-5 -16 -67 -35 -138 -20 -71 -34 -131 -31 -133 3 -3 149 -11 326 -18 176 -7
323 -15 326 -17 2 -3 2 -67 -2 -143 l-7 -137 -187 7 -187 7 -5 -78 c-3 -44 -4
-81 -3 -82 2 -2 81 -7 177 -10 l173 -7 -3 -70 c-1 -38 -1 -67 2 -64 3 2 12 49
20 104 39 260 118 760 120 763 5 4 519 -78 581 -94 83 -20 193 -74 237 -116
l37 -34 41 44 c60 63 146 115 247 148 84 28 96 29 273 29 125 0 192 -4 206
-12 19 -11 21 -24 28 -169 4 -86 5 -158 3 -160 -2 -2 -30 6 -63 18 -80 29
-225 31 -303 4 -116 -40 -183 -146 -182 -285 1 -142 77 -252 199 -287 68 -20
174 -14 259 15 32 11 60 18 64 15 3 -2 3 16 -2 39 -15 75 -10 199 11 286 41
168 153 327 282 399 99 55 194 75 328 69 144 -6 251 -42 350 -116 86 -65 178
-191 181 -248 0 -10 7 18 15 62 41 227 204 407 424 466 85 23 250 25 333 3z
m3622 -26 c5 -17 29 -958 24 -962 -6 -6 -299 -29 -304 -25 -5 5 -125 962 -121
966 3 3 298 28 374 32 12 0 24 -5 27 -11z m-5631 -498 c4 -5 -1 -48 -13 -98
-13 -54 -21 -123 -21 -175 l0 -85 -64 -7 c-151 -16 -226 47 -226 193 0 55 5
76 23 102 32 48 67 70 123 79 54 9 164 3 178 -9z m3291 -187 c-9 -122 -15
-135 -44 -95 -11 17 -21 34 -21 40 0 13 62 152 68 152 2 0 1 -44 -3 -97z
m2360 -430 c62 -39 90 -92 90 -173 0 -90 -31 -144 -104 -182 -124 -65 -268
-14 -310 111 -16 50 -13 120 8 167 47 104 211 144 316 77z"/>
<path d="M6835 1809 c-37 -21 -77 -64 -98 -104 -16 -31 -22 -63 -25 -146 -5
-126 11 -195 61 -261 106 -140 307 -85 348 96 6 30 10 93 7 147 -5 112 -30
177 -89 235 -38 37 -43 39 -112 42 -42 1 -80 -2 -92 -9z m154 -154 c20 -38 27
-68 30 -129 4 -94 -10 -147 -46 -175 -80 -64 -153 22 -153 179 0 128 32 183
103 178 38 -3 43 -7 66 -53z"/>
<path d="M3860 1729 c0 -2 -9 -58 -20 -124 -10 -66 -16 -123 -12 -127 4 -4 35
-8 69 -9 92 -2 143 34 158 114 9 48 -17 101 -61 122 -31 15 -134 33 -134 24z"/>
<path d="M5695 1626 c-93 -40 -167 -226 -151 -378 14 -140 109 -222 235 -203
67 10 142 88 169 177 57 186 24 352 -81 401 -42 20 -130 22 -172 3z m141 -117
c28 -31 32 -168 8 -245 -41 -132 -146 -154 -184 -38 -26 79 12 241 68 284 33
26 84 26 108 -1z"/>
<path d="M9610 1533 c0 -21 9 -153 20 -293 11 -140 20 -263 20 -273 0 -17 6
-18 68 -12 103 10 135 22 183 64 94 82 124 221 79 361 -43 134 -128 190 -287
190 l-83 0 0 -37z m185 -87 c82 -35 121 -177 76 -282 -17 -38 -32 -57 -62 -74
-23 -12 -44 -18 -49 -14 -8 8 -30 269 -30 349 0 40 11 43 65 21z"/>
<path d="M1354 1501 c-52 -24 -101 -83 -119 -145 -50 -166 -14 -347 82 -412
110 -74 256 -9 300 133 22 70 23 228 3 288 -44 130 -154 187 -266 136z m117
-101 c71 -38 78 -266 11 -341 -19 -21 -37 -30 -59 -31 -68 -2 -97 52 -96 179
1 73 6 102 22 136 29 59 76 81 122 57z"/>
<path d="M8431 944 c0 -11 3 -14 6 -6 3 7 2 16 -1 19 -3 4 -6 -2 -5 -13z"/>
</g>
</svg>
