<svg xmlns="http://www.w3.org/2000/svg" xmlns:xlink="http://www.w3.org/1999/xlink" version="1.1" viewBox="0 0 512 512" style="enable-background:new 0 0 512 512;" xml:space="preserve">
  <g id="_x31_7_x2C__Lollipop_x2C__Food_and_Restaurant_x2C__Gastronomy_x2C__Valentines_Day_x2C__Dessert">
    <g>
      <path fill="pink" d="M420.361,91.939C415.592,41.299,373.003,1,320.275,1c-55.436,0-100.543,45.106-100.551,100.551v47.579    c-13.227-6.416-30.1-5.109-42.256,7.046l-62.081,62.081c-23.071,23.072-7.05,62.41,25.403,62.965l42.307,5.33L10.133,459.515    c-11.79,11.79-11.789,30.861,0,42.649c11.783,11.783,30.867,11.779,42.648,0l172.964-172.965l5.329,42.307    c0.556,32.486,39.918,48.448,62.965,25.402l62.081-62.081c12.166-12.166,13.463-29.031,7.047-42.251    c22.057,0.001,40.624,0.002,47.591,0.002C537.846,292.507,546.67,103.962,420.361,91.939z M230.416,296.096L216.2,281.88    c4.783-4.783,8.975-8.975,14.28-14.28l14.216,14.216C239.596,286.917,235.616,290.896,230.416,296.096z M141.467,261.123    c-14.997,0-22.473-18.041-11.863-28.65l62.081-62.081c9.43-9.432,24.873-4.486,28.039,7.296v72.236l-3.46,3.46l-28.432-28.432    c-3.926-3.926-10.291-3.926-14.216,0s-3.926,10.291,0,14.216l28.432,28.432l-1.04,1.04    C199.99,268.373,142.49,261.123,141.467,261.123z M38.565,487.948c-3.925,3.925-10.292,3.924-14.216,0    c-3.932-3.932-3.931-10.285,0-14.216l177.635-177.636l14.216,14.216L38.565,487.948z M341.904,320.611l-62.081,62.081    c-10.603,10.607-28.65,3.142-28.65-11.863c0-1.007-7.248-58.518-7.516-59.542l1.039-1.039l28.432,28.432    c3.926,3.926,10.291,3.925,14.216,0c3.926-3.926,3.926-10.291,0-14.216l-28.432-28.432l3.46-3.46    c14.414,0.001,43.432,0.002,72.24,0.003C346.385,295.744,351.345,311.171,341.904,320.611z M410.753,272.475    c-16.096-0.001-118.622-0.005-146.973-0.007l-23.951-23.952c0-15.721,0-129.687,0-146.964    c0.006-44.359,36.095-80.448,80.447-80.448c44.486,0,80.42,35.982,80.433,80.435c0.001,5.55,4.502,10.049,10.052,10.049    C517.242,111.589,517.045,272.414,410.753,272.475z"/><path fill="pink" d="M410.759,137.724l-36.177,0l-0.011-36.176c-0.007-30.105-24.34-54.307-54.296-54.307    c-29.94,0-54.304,24.363-54.311,54.308c0-0.108,0,134.615,0,134.733c0,5.551,4.5,10.052,10.052,10.052l134.744,0.005    c48.07-0.026,72.573-58.537,38.401-92.711C438.906,143.373,425.268,137.725,410.759,137.724z"/>
    </g>
  </g>
  <g id="Layer_1"/>
</svg>
